<svg width="20" height="37" viewBox="0 0 15 37" fill="none" xmlns="http://www.w3.org/2000/svg">
<path d="M7.424 33.352C5.20533 33.2453 3.552 32.5413 2.464 31.24C1.376 29.9173 0.789333 27.8907 0.704 25.16L5.6 24.424C5.62133 26.0667 5.81333 27.2507 6.176 27.976C6.53867 28.68 7.09333 29.032 7.84 29.032C8.8 29.032 9.28 28.4027 9.28 27.144C9.28 26.1413 9.04533 25.288 8.576 24.584C8.128 23.8587 7.424 23.0693 6.464 22.216L4.192 20.264C3.04 19.24 2.16533 18.2373 1.568 17.256C0.992 16.2747 0.704 15.0267 0.704 13.512C0.704 11.5067 1.26933 9.928 2.4 8.776C3.552 7.60267 5.13067 6.94133 7.136 6.792V3.752H8.768V6.76C10.9653 6.888 12.4373 7.656 13.184 9.064C13.952 10.4507 14.368 12.1253 14.432 14.088L9.472 14.696C9.42933 13.3307 9.30133 12.36 9.088 11.784C8.896 11.1867 8.46933 10.8987 7.808 10.92C7.296 10.92 6.90133 11.1333 6.624 11.56C6.368 11.9653 6.24 12.424 6.24 12.936C6.24 13.8533 6.44267 14.6107 6.848 15.208C7.27467 15.784 7.904 16.4453 8.736 17.192L10.912 19.08C12.192 20.2533 13.1733 21.4373 13.856 22.632C14.56 23.8053 14.912 25.2133 14.912 26.856C14.912 28.584 14.3787 30.056 13.312 31.272C12.2667 32.4667 10.848 33.1493 9.056 33.32V36.52H7.424V33.352ZM33.3588" fill="white"/>
</svg>
